<?xml version="1.0" encoding="UTF-8"?><svg id="Layer_2" xmlns="http://www.w3.org/2000/svg" viewBox="0 0 1081.29 660.46"><defs><style>.cls-1{stroke-width:4.17px;}.cls-1,.cls-2,.cls-3,.cls-4,.cls-5,.cls-6,.cls-7,.cls-8{fill:none;stroke-linecap:round;stroke-miterlimit:10;}.cls-1,.cls-5,.cls-6,.cls-7,.cls-8{stroke:#fff;}.cls-1,.cls-8{opacity:.4;}.cls-2{stroke:#868686;stroke-width:15px;}.cls-2,.cls-3,.cls-4,.cls-5,.cls-6{opacity:.15;}.cls-3{stroke:#f5f5f5;}.cls-3,.cls-5{stroke-width:10px;}.cls-4{stroke:#595959;stroke-width:20px;}.cls-6{stroke-width:6.67px;}.cls-7{opacity:.9;stroke-width:.83px;}.cls-8{stroke-width:2px;}</style></defs><g id="GREEN_HEART_FRAME"><g id="Green_Heart_of_Europe"><g id="EXPORT"><g id="Green_Heart_Boundary"><g id="Green_Heart_Boundary-2"><polygon class="cls-5" points="852.33 10.81 874.43 42.61 865.73 53.91 868.63 71.11 896.23 73.81 908.53 97.61 907.73 108.41 951.73 127.51 978.23 118.91 999.63 144.21 1019.83 143.61 1070.83 161.01 1071.23 176.61 1057.13 204.31 1064.83 233.11 1059.33 250.31 1025.83 254.11 1008.03 268.51 1006.93 291.11 979.33 295.21 956.33 311.61 923.93 314.21 894.13 332.91 895.83 359.61 890.63 358.11 886.13 348.31 875.03 346.31 850.43 335.61 841.33 348.01 836.53 342.61 782.83 329.91 780.43 311.21 748.33 317.41 735.53 345.01 708.73 381.51 709.53 394.21 692.73 404.71 682.23 400.11 672.63 458.51 654.63 478.21 642.03 512.01 653.13 538.71 623.43 532.41 588.13 547.11 587.73 570.11 556.33 574.51 531.93 558.31 504.23 571.01 478.63 569.71 472.03 571.21 466.43 579.21 447.63 578.41 434.43 588.41 411.83 592.41 411.13 604.41 399.93 611.01 397.83 625.81 381.73 647.61 375.83 644.51 375.13 634.61 356.03 619.41 353.03 597.71 355.93 566.41 360.63 552.01 354.83 544.71 347.53 541.11 337.83 525.91 322.93 516.61 290.43 499.21 270.33 482.21 238.73 468.01 209.63 432.71 216.63 429.11 200.83 408.71 200.13 392.21 177.93 384.51 167.33 405.61 157.13 389.21 157.93 372.11 159.13 371.31 166.83 366.91 158.53 345.71 162.33 321.11 112.83 308.11 105.13 290.51 70.93 299.31 66.93 308.91 45.93 301.71 28.23 300.31 12.63 291.11 17.93 278.61 16.53 269.51 27.03 266.71 44.53 280.91 49.43 267.41 79.93 269.61 104.73 260.41 121.23 262.01 132.03 272.51 135.33 263.81 130.33 230.11 142.83 223.51 155.03 199.41 135.43 176.71 117.83 163.91 114.13 141.31 108.13 125.31 133.23 113.41 146.13 99.91 170.93 89.31 179.63 78.81 188.73 85.11 204.13 79.41 220.53 97.01 246.43 101.81 244.23 116.81 263.03 128.01 268.23 114.01 291.93 120.11 295.23 137.01 320.93 140.21 336.83 166.61 338.83 169.81 353.03 162.61 370.53 181.41 390.93 170.01 407.23 175.51 432.13 168.01 465.03 188.41 472.63 191.51 463.63 167.61 495.03 123.01 512.23 116.71 515.93 101.41 498.53 53.21 515.13 51.11 534.03 35.91 560.83 34.71 595.83 39.11 634.43 52.51 661.63 53.61 674.63 61.61 687.63 51.91 696.73 64.91 727.93 62.31 741.63 67.61 743.93 39.61 754.53 27.31 784.23 23.91 797.13 26.21 805.93 13.41 816.43 16.21 852.33 10.81"/><polygon class="cls-4" points="852.33 10.81 874.43 42.61 865.73 53.91 868.63 71.11 896.23 73.81 908.53 97.61 907.73 108.41 951.73 127.51 978.23 118.91 999.63 144.21 1019.83 143.61 1070.83 161.01 1071.23 176.61 1057.13 204.31 1064.83 233.11 1059.33 250.31 1025.83 254.11 1008.03 268.51 1006.93 291.11 979.33 295.21 956.33 311.61 923.93 314.21 894.13 332.91 895.83 359.61 890.63 358.11 886.13 348.31 875.03 346.31 850.43 335.61 841.33 348.01 836.53 342.61 782.83 329.91 780.43 311.21 748.33 317.41 735.53 345.01 708.73 381.51 709.53 394.21 692.73 404.71 682.23 400.11 672.63 458.51 654.63 478.21 642.03 512.01 653.13 538.71 623.43 532.41 588.13 547.11 587.73 570.11 556.33 574.51 531.93 558.31 504.23 571.01 478.63 569.71 472.03 571.21 466.43 579.21 447.63 578.41 434.43 588.41 411.83 592.41 411.13 604.41 399.93 611.01 397.83 625.81 381.73 647.61 375.83 644.51 375.13 634.61 356.03 619.41 353.03 597.71 355.93 566.41 360.63 552.01 354.83 544.71 347.53 541.11 337.83 525.91 322.93 516.61 290.43 499.21 270.33 482.21 238.73 468.01 209.63 432.71 216.63 429.11 200.83 408.71 200.13 392.21 177.93 384.51 167.33 405.61 157.13 389.21 157.93 372.11 159.13 371.31 166.83 366.91 158.53 345.71 162.33 321.11 112.83 308.11 105.13 290.51 70.93 299.31 66.93 308.91 45.93 301.71 28.23 300.31 12.63 291.11 17.93 278.61 16.53 269.51 27.03 266.71 44.53 280.91 49.43 267.41 79.93 269.61 104.73 260.41 121.23 262.01 132.03 272.51 135.33 263.81 130.33 230.11 142.83 223.51 155.03 199.41 135.43 176.71 117.83 163.91 114.13 141.31 108.13 125.31 133.23 113.41 146.13 99.91 170.93 89.31 179.63 78.81 188.73 85.11 204.13 79.41 220.53 97.01 246.43 101.81 244.23 116.81 263.03 128.01 268.23 114.01 291.93 120.11 295.23 137.01 320.93 140.21 336.83 166.61 338.83 169.81 353.03 162.61 370.53 181.41 390.93 170.01 407.23 175.51 432.13 168.01 465.03 188.41 472.63 191.51 463.63 167.61 495.03 123.01 512.23 116.71 515.93 101.41 498.53 53.21 515.13 51.11 534.03 35.91 560.83 34.71 595.83 39.11 634.43 52.51 661.63 53.61 674.63 61.61 687.63 51.91 696.73 64.91 727.93 62.31 741.63 67.61 743.93 39.61 754.53 27.31 784.23 23.91 797.13 26.21 805.93 13.41 816.43 16.21 852.33 10.81"/><polygon class="cls-2" points="852.33 10.81 874.43 42.61 865.73 53.91 868.63 71.11 896.23 73.81 908.53 97.61 907.73 108.41 951.73 127.51 978.23 118.91 999.63 144.21 1019.83 143.61 1070.83 161.01 1071.23 176.61 1057.13 204.31 1064.83 233.11 1059.33 250.31 1025.83 254.11 1008.03 268.51 1006.93 291.11 979.33 295.21 956.33 311.61 923.93 314.21 894.13 332.91 895.83 359.61 890.63 358.11 886.13 348.31 875.03 346.31 850.43 335.61 841.33 348.01 836.53 342.61 782.83 329.91 780.43 311.21 748.33 317.41 735.53 345.01 708.73 381.51 709.53 394.21 692.73 404.71 682.23 400.11 672.63 458.51 654.63 478.21 642.03 512.01 653.13 538.71 623.43 532.41 588.13 547.11 587.73 570.11 556.33 574.51 531.93 558.31 504.23 571.01 478.63 569.71 472.03 571.21 466.43 579.21 447.63 578.41 434.43 588.41 411.83 592.41 411.13 604.41 399.93 611.01 397.83 625.81 381.73 647.61 375.83 644.51 375.13 634.61 356.03 619.41 353.03 597.71 355.93 566.41 360.63 552.01 354.83 544.71 347.53 541.11 337.83 525.91 322.93 516.61 290.43 499.21 270.33 482.21 238.73 468.01 209.63 432.71 216.63 429.11 200.83 408.71 200.13 392.21 177.93 384.51 167.33 405.61 157.13 389.21 157.93 372.11 159.13 371.31 166.83 366.91 158.53 345.71 162.33 321.11 112.83 308.11 105.13 290.51 70.93 299.31 66.93 308.91 45.93 301.71 28.23 300.31 12.63 291.11 17.93 278.61 16.53 269.51 27.03 266.71 44.53 280.91 49.43 267.41 79.93 269.61 104.73 260.41 121.23 262.01 132.03 272.51 135.33 263.81 130.33 230.11 142.83 223.51 155.03 199.41 135.43 176.71 117.83 163.91 114.13 141.31 108.13 125.31 133.23 113.41 146.13 99.91 170.93 89.31 179.63 78.81 188.73 85.11 204.13 79.41 220.53 97.01 246.43 101.81 244.23 116.81 263.03 128.01 268.23 114.01 291.93 120.11 295.23 137.01 320.93 140.21 336.83 166.61 338.83 169.81 353.03 162.61 370.53 181.41 390.93 170.01 407.23 175.51 432.13 168.01 465.03 188.41 472.63 191.51 463.63 167.61 495.03 123.01 512.23 116.71 515.93 101.41 498.53 53.21 515.13 51.11 534.03 35.91 560.83 34.71 595.83 39.11 634.43 52.51 661.63 53.61 674.63 61.61 687.63 51.91 696.73 64.91 727.93 62.31 741.63 67.61 743.93 39.61 754.53 27.31 784.23 23.91 797.13 26.21 805.93 13.41 816.43 16.21 852.33 10.81"/><polygon class="cls-3" points="852.33 10.81 874.43 42.61 865.73 53.91 868.63 71.11 896.23 73.81 908.53 97.61 907.73 108.41 951.73 127.51 978.23 118.91 999.63 144.21 1019.83 143.61 1070.83 161.01 1071.23 176.61 1057.13 204.31 1064.83 233.11 1059.33 250.31 1025.83 254.11 1008.03 268.51 1006.93 291.11 979.33 295.21 956.33 311.61 923.93 314.21 894.13 332.91 895.83 359.61 890.63 358.11 886.13 348.31 875.03 346.31 850.43 335.61 841.33 348.01 836.53 342.61 782.83 329.91 780.43 311.21 748.33 317.41 735.53 345.01 708.73 381.51 709.53 394.21 692.73 404.71 682.23 400.11 672.63 458.51 654.63 478.21 642.03 512.01 653.13 538.71 623.43 532.41 588.13 547.11 587.73 570.11 556.33 574.51 531.93 558.31 504.23 571.01 478.63 569.71 472.03 571.21 466.43 579.21 447.63 578.41 434.43 588.41 411.83 592.41 411.13 604.41 399.93 611.01 397.83 625.81 381.73 647.61 375.83 644.51 375.13 634.61 356.03 619.41 353.03 597.71 355.93 566.41 360.63 552.01 354.83 544.71 347.53 541.11 337.83 525.91 322.93 516.61 290.43 499.21 270.33 482.21 238.73 468.01 209.63 432.71 216.63 429.11 200.83 408.71 200.13 392.21 177.93 384.51 167.33 405.61 157.13 389.21 157.93 372.11 159.13 371.31 166.83 366.91 158.53 345.71 162.33 321.11 112.83 308.11 105.13 290.51 70.93 299.31 66.93 308.91 45.93 301.71 28.23 300.31 12.63 291.11 17.93 278.61 16.53 269.51 27.03 266.71 44.53 280.91 49.43 267.41 79.93 269.61 104.73 260.41 121.23 262.01 132.03 272.51 135.33 263.81 130.33 230.11 142.83 223.51 155.03 199.41 135.43 176.71 117.83 163.91 114.13 141.31 108.13 125.31 133.23 113.41 146.13 99.91 170.93 89.31 179.63 78.81 188.73 85.11 204.13 79.41 220.53 97.01 246.43 101.81 244.23 116.81 263.03 128.01 268.23 114.01 291.93 120.11 295.23 137.01 320.93 140.21 336.83 166.61 338.83 169.81 353.03 162.61 370.53 181.41 390.93 170.01 407.23 175.51 432.13 168.01 465.03 188.41 472.63 191.51 463.63 167.61 495.03 123.01 512.23 116.71 515.93 101.41 498.53 53.21 515.13 51.11 534.03 35.91 560.83 34.71 595.83 39.11 634.43 52.51 661.63 53.61 674.63 61.61 687.63 51.91 696.73 64.91 727.93 62.31 741.63 67.61 743.93 39.61 754.53 27.31 784.23 23.91 797.13 26.21 805.93 13.41 816.43 16.21 852.33 10.81"/><polygon class="cls-6" points="852.33 10.81 874.43 42.61 865.73 53.91 868.63 71.11 896.23 73.81 908.53 97.61 907.73 108.41 951.73 127.51 978.23 118.91 999.63 144.21 1019.83 143.61 1070.83 161.01 1071.23 176.61 1057.13 204.31 1064.83 233.11 1059.33 250.31 1025.83 254.11 1008.03 268.51 1006.93 291.11 979.33 295.21 956.33 311.61 923.93 314.21 894.13 332.91 895.83 359.61 890.63 358.11 886.13 348.31 875.03 346.31 850.43 335.61 841.33 348.01 836.53 342.61 782.83 329.91 780.43 311.21 748.33 317.41 735.53 345.01 708.73 381.51 709.53 394.21 692.73 404.71 682.23 400.11 672.63 458.51 654.63 478.21 642.03 512.01 653.13 538.71 623.43 532.41 588.13 547.11 587.73 570.11 556.33 574.51 531.93 558.31 504.23 571.01 478.63 569.71 472.03 571.21 466.43 579.21 447.63 578.41 434.43 588.41 411.83 592.41 411.13 604.41 399.93 611.01 397.83 625.81 381.73 647.61 375.83 644.51 375.13 634.61 356.03 619.41 353.03 597.71 355.93 566.41 360.63 552.01 354.83 544.71 347.53 541.11 337.83 525.91 322.93 516.61 290.43 499.21 270.33 482.21 238.73 468.01 209.63 432.71 216.63 429.11 200.83 408.71 200.13 392.21 177.93 384.51 167.33 405.61 157.13 389.21 157.93 372.11 159.13 371.31 166.83 366.91 158.53 345.71 162.33 321.11 112.83 308.11 105.13 290.51 70.93 299.31 66.93 308.91 45.93 301.71 28.23 300.31 12.63 291.11 17.93 278.61 16.53 269.51 27.03 266.71 44.53 280.91 49.43 267.41 79.93 269.61 104.73 260.41 121.23 262.01 132.03 272.51 135.33 263.81 130.33 230.11 142.83 223.51 155.03 199.41 135.43 176.71 117.83 163.91 114.13 141.31 108.13 125.31 133.23 113.41 146.13 99.91 170.93 89.31 179.63 78.81 188.73 85.11 204.13 79.41 220.53 97.01 246.43 101.81 244.23 116.81 263.03 128.01 268.23 114.01 291.93 120.11 295.23 137.01 320.93 140.21 336.83 166.61 338.83 169.81 353.03 162.61 370.53 181.41 390.93 170.01 407.23 175.51 432.13 168.01 465.03 188.41 472.63 191.51 463.63 167.61 495.03 123.01 512.23 116.71 515.93 101.41 498.53 53.21 515.13 51.11 534.03 35.91 560.83 34.71 595.83 39.11 634.43 52.51 661.63 53.61 674.63 61.61 687.63 51.91 696.73 64.91 727.93 62.31 741.63 67.61 743.93 39.61 754.53 27.31 784.23 23.91 797.13 26.21 805.93 13.41 816.43 16.21 852.33 10.81"/><polygon class="cls-1" points="852.33 10.81 874.43 42.61 865.73 53.91 868.63 71.11 896.23 73.81 908.53 97.61 907.73 108.41 951.73 127.51 978.23 118.91 999.63 144.21 1019.83 143.61 1070.83 161.01 1071.23 176.61 1057.13 204.31 1064.83 233.11 1059.33 250.31 1025.83 254.11 1008.03 268.51 1006.93 291.11 979.33 295.21 956.33 311.61 923.93 314.21 894.13 332.91 895.83 359.61 890.63 358.11 886.13 348.31 875.03 346.31 850.43 335.61 841.33 348.01 836.53 342.61 782.83 329.91 780.43 311.21 748.33 317.41 735.53 345.01 708.73 381.51 709.53 394.21 692.73 404.71 682.23 400.11 672.63 458.51 654.63 478.21 642.03 512.01 653.13 538.71 623.43 532.41 588.13 547.11 587.73 570.11 556.33 574.51 531.93 558.31 504.23 571.01 478.63 569.71 472.03 571.21 466.43 579.21 447.63 578.41 434.43 588.41 411.83 592.41 411.13 604.41 399.93 611.01 397.83 625.81 381.73 647.61 375.83 644.51 375.13 634.61 356.03 619.41 353.03 597.71 355.93 566.41 360.63 552.01 354.83 544.71 347.53 541.11 337.83 525.91 322.93 516.61 290.43 499.21 270.33 482.21 238.73 468.01 209.63 432.71 216.63 429.11 200.83 408.71 200.13 392.21 177.93 384.51 167.33 405.61 157.13 389.21 157.93 372.11 159.13 371.31 166.83 366.91 158.53 345.71 162.33 321.11 112.83 308.11 105.13 290.51 70.93 299.31 66.93 308.91 45.93 301.71 28.23 300.31 12.63 291.11 17.93 278.61 16.53 269.51 27.03 266.71 44.53 280.91 49.43 267.41 79.93 269.61 104.73 260.41 121.23 262.01 132.03 272.51 135.33 263.81 130.33 230.11 142.83 223.51 155.03 199.41 135.43 176.71 117.83 163.91 114.13 141.31 108.13 125.31 133.23 113.41 146.13 99.91 170.93 89.31 179.63 78.81 188.73 85.11 204.13 79.41 220.53 97.01 246.43 101.81 244.23 116.81 263.03 128.01 268.23 114.01 291.93 120.11 295.23 137.01 320.93 140.21 336.83 166.61 338.83 169.81 353.03 162.61 370.53 181.41 390.93 170.01 407.23 175.51 432.13 168.01 465.03 188.41 472.63 191.51 463.63 167.61 495.03 123.01 512.23 116.71 515.93 101.41 498.53 53.21 515.13 51.11 534.03 35.91 560.83 34.71 595.83 39.11 634.43 52.51 661.63 53.61 674.63 61.61 687.63 51.91 696.73 64.91 727.93 62.31 741.63 67.61 743.93 39.61 754.53 27.31 784.23 23.91 797.13 26.21 805.93 13.41 816.43 16.21 852.33 10.81"/><polygon class="cls-8" points="852.33 10.81 874.43 42.61 865.73 53.91 868.63 71.11 896.23 73.81 908.53 97.61 907.73 108.41 951.73 127.51 978.23 118.91 999.63 144.21 1019.83 143.61 1070.83 161.01 1071.23 176.61 1057.13 204.31 1064.83 233.11 1059.33 250.31 1025.83 254.11 1008.03 268.51 1006.93 291.11 979.33 295.21 956.33 311.61 923.93 314.21 894.13 332.91 895.83 359.61 890.63 358.11 886.13 348.31 875.03 346.31 850.43 335.61 841.33 348.01 836.53 342.61 782.83 329.91 780.43 311.21 748.33 317.41 735.53 345.01 708.73 381.51 709.53 394.21 692.73 404.71 682.23 400.11 672.63 458.51 654.63 478.21 642.03 512.01 653.13 538.71 623.43 532.41 588.13 547.11 587.73 570.11 556.33 574.51 531.93 558.31 504.23 571.01 478.63 569.71 472.03 571.21 466.43 579.21 447.63 578.41 434.43 588.41 411.83 592.41 411.13 604.41 399.93 611.01 397.83 625.81 381.73 647.61 375.83 644.51 375.13 634.61 356.03 619.41 353.03 597.71 355.93 566.41 360.63 552.01 354.83 544.71 347.53 541.11 337.83 525.91 322.93 516.61 290.43 499.21 270.33 482.21 238.73 468.01 209.63 432.71 216.63 429.11 200.83 408.71 200.13 392.21 177.93 384.51 167.33 405.61 157.13 389.21 157.93 372.11 159.13 371.31 166.83 366.91 158.53 345.71 162.33 321.11 112.83 308.11 105.13 290.51 70.93 299.31 66.93 308.91 45.93 301.71 28.23 300.31 12.63 291.11 17.93 278.61 16.53 269.51 27.03 266.71 44.53 280.91 49.43 267.41 79.93 269.61 104.73 260.41 121.23 262.01 132.03 272.51 135.33 263.81 130.33 230.11 142.83 223.51 155.03 199.41 135.43 176.71 117.83 163.91 114.13 141.31 108.13 125.31 133.23 113.41 146.13 99.91 170.93 89.31 179.63 78.81 188.73 85.11 204.13 79.41 220.53 97.01 246.43 101.81 244.23 116.81 263.03 128.01 268.23 114.01 291.93 120.11 295.23 137.01 320.93 140.21 336.83 166.61 338.83 169.81 353.03 162.61 370.53 181.41 390.93 170.01 407.23 175.51 432.13 168.01 465.03 188.41 472.63 191.51 463.63 167.61 495.03 123.01 512.23 116.71 515.93 101.41 498.53 53.21 515.13 51.11 534.03 35.91 560.83 34.71 595.83 39.11 634.43 52.51 661.63 53.61 674.63 61.61 687.63 51.91 696.73 64.91 727.93 62.31 741.63 67.61 743.93 39.61 754.53 27.31 784.23 23.91 797.13 26.21 805.93 13.41 816.43 16.21 852.33 10.81"/><polygon class="cls-7" points="852.33 10.81 874.43 42.61 865.73 53.91 868.63 71.11 896.23 73.81 908.53 97.61 907.73 108.41 951.73 127.51 978.23 118.91 999.63 144.21 1019.83 143.61 1070.83 161.01 1071.23 176.61 1057.13 204.31 1064.83 233.11 1059.33 250.31 1025.83 254.11 1008.03 268.51 1006.93 291.11 979.33 295.21 956.33 311.61 923.93 314.21 894.13 332.91 895.83 359.61 890.63 358.11 886.13 348.31 875.03 346.31 850.43 335.61 841.33 348.01 836.53 342.61 782.83 329.91 780.43 311.21 748.33 317.41 735.53 345.01 708.73 381.51 709.53 394.21 692.73 404.71 682.23 400.11 672.63 458.51 654.63 478.21 642.03 512.01 653.13 538.71 623.43 532.41 588.13 547.11 587.73 570.11 556.33 574.51 531.93 558.31 504.23 571.01 478.63 569.71 472.03 571.21 466.43 579.21 447.63 578.41 434.43 588.41 411.83 592.41 411.13 604.41 399.93 611.01 397.83 625.81 381.73 647.61 375.83 644.51 375.13 634.61 356.03 619.41 353.03 597.71 355.93 566.41 360.63 552.01 354.83 544.71 347.53 541.11 337.83 525.91 322.93 516.61 290.43 499.21 270.33 482.21 238.73 468.01 209.63 432.71 216.63 429.11 200.83 408.71 200.13 392.21 177.93 384.51 167.33 405.61 157.13 389.21 157.93 372.11 159.13 371.31 166.83 366.91 158.53 345.71 162.33 321.11 112.83 308.11 105.13 290.51 70.93 299.31 66.93 308.91 45.93 301.71 28.23 300.31 12.63 291.11 17.93 278.61 16.53 269.51 27.03 266.71 44.53 280.91 49.43 267.41 79.93 269.61 104.73 260.41 121.23 262.01 132.03 272.51 135.33 263.81 130.33 230.11 142.83 223.51 155.03 199.41 135.43 176.71 117.83 163.91 114.13 141.31 108.13 125.31 133.23 113.41 146.13 99.91 170.93 89.31 179.63 78.81 188.73 85.11 204.13 79.41 220.53 97.01 246.43 101.81 244.23 116.81 263.03 128.01 268.23 114.01 291.93 120.11 295.23 137.01 320.93 140.21 336.83 166.61 338.83 169.81 353.03 162.61 370.53 181.41 390.93 170.01 407.23 175.51 432.13 168.01 465.03 188.41 472.63 191.51 463.63 167.61 495.03 123.01 512.23 116.71 515.93 101.41 498.53 53.21 515.13 51.11 534.03 35.91 560.83 34.71 595.83 39.11 634.43 52.51 661.63 53.61 674.63 61.61 687.63 51.91 696.73 64.91 727.93 62.31 741.63 67.61 743.93 39.61 754.53 27.31 784.23 23.91 797.13 26.21 805.93 13.41 816.43 16.21 852.33 10.81"/></g></g></g></g></g></svg>